<svg xmlns="http://www.w3.org/2000/svg" viewBox="0 0 800 1000" preserveAspectRatio="xMidYMid slice">
  <defs>
    <linearGradient id="bg" x1="0" y1="0" x2="1" y2="1"><stop stop-color="#3c2b38"/><stop offset="1" stop-color="#11131d"/></linearGradient>
  </defs>
  <rect width="800" height="1000" fill="url(#bg)"/>
  <circle cx="650" cy="760" r="260" fill="#f59e0b" opacity=".12"/>
  <g transform="translate(218 104)">
    <rect width="364" height="720" rx="42" fill="#0c1018" stroke="#667483" stroke-width="8"/>
    <rect x="20" y="58" width="324" height="588" rx="18" fill="#20202c"/>
    <rect x="137" y="25" width="90" height="12" rx="6" fill="#3a424d"/>
    <circle cx="182" cy="681" r="27" fill="#1b2730" stroke="#f59e0b" stroke-width="4"/>
    <text x="44" y="111" fill="#f5f5f4" font-family="Arial, sans-serif" font-size="22" font-weight="700">Messages</text>
    <text x="44" y="148" fill="#a8a29e" font-family="Arial, sans-serif" font-size="16">ArdaLink</text>
    <rect x="48" y="196" width="235" height="82" rx="18" fill="#343444"/>
    <text x="70" y="231" fill="#f5f5f4" font-family="Arial, sans-serif" font-size="18" font-weight="700">BULA</text>
    <text x="70" y="258" fill="#a8a29e" font-family="Arial, sans-serif" font-size="14">09:42</text>
    <rect x="82" y="326" width="234" height="176" rx="18" fill="#f59e0b"/>
    <text x="105" y="362" fill="#211923" font-family="Arial, sans-serif" font-size="17" font-weight="700">ArdaLink brief</text>
    <text x="105" y="399" fill="#211923" font-family="Arial, sans-serif" font-size="15">Maji iko kilomita 6</text>
    <text x="105" y="425" fill="#211923" font-family="Arial, sans-serif" font-size="15">kaskazini. Malisho</text>
    <text x="105" y="451" fill="#211923" font-family="Arial, sans-serif" font-size="15">bado ni salama.</text>
    <text x="105" y="478" fill="#6b3b1c" font-family="Arial, sans-serif" font-size="13">09:43 · delivered</text>
    <rect x="48" y="552" width="268" height="46" rx="23" fill="#343444"/>
    <text x="182" y="581" text-anchor="middle" fill="#a8a29e" font-family="Arial, sans-serif" font-size="15">Reply BULA</text>
  </g>
</svg>